# xmcd
#
# Track frame offsets:
#	150
#	15915
#	29904
#	44064
#	57583
#	75682
#	88497
#	103163
#	116558
#	129070
#	142684
#	158974
#	173085
#	190498
#	205882
#
# Disc length: 2941 seconds
#
# Revision: 1
# Processed by: cddbd v1.5.2PL0 Copyright (c) Steve Scherf et al.
# Submitted via: audiograbber 1.83.01
#
DISCID=d20b7b0f
DTITLE=Chartbusters - 80105
DYEAR=1900
DGENRE=
TTITLE0=Williams, Don - Amanda
TTITLE1=Haggard, Merle - Everybody's Had The Blues
TTITLE2=Anderson, Lynn - Keep Me In Mind
TTITLE3=Osmond, Marie - Paper Roses
TTITLE4=Price, Ray - You're The Best Thing That Ever Happened To Me
TTITLE5=Lynn, Loretta - Rated X
TTITLE6=Fairchild, Barbara - Teddy Bear Song
TTITLE7=Russell, Johnny - Rednecks White Socks And Blue Ribbon Beer
TTITLE8=Wynette, Tammy - Till I Get It Right
TTITLE9=Tucker, Tanya - What's Your Mams's Name
TTITLE10=Kristofferson, Kris - Why Me Lord
TTITLE11=Murray, Anne - Danny's Song
TTITLE12=Lewis, Jerry Lee - Drinking Wine Spo Dee O Dee
TTITLE13=Tucker, Tanya - James Town  Ferry
TTITLE14=Fargo, Donna - You Were Always There
EXTD=
EXTT0=
EXTT1=
EXTT2=
EXTT3=
EXTT4=
EXTT5=
EXTT6=
EXTT7=
EXTT8=
EXTT9=
EXTT10=
EXTT11=
EXTT12=
EXTT13=
EXTT14=
PLAYORDER=
